<?xml version="1.0" encoding="utf-8"?><svg xml:space="preserve" viewBox="0 0 100 100" y="0" x="0" xmlns="http://www.w3.org/2000/svg" id="圖層_1" version="1.1" width="100px" height="100px" xmlns:xlink="http://www.w3.org/1999/xlink" style="width:100%;height:100%;background-size:initial;background-repeat-y:initial;background-repeat-x:initial;background-position-y:initial;background-position-x:initial;background-origin:initial;background-color:initial;background-clip:initial;background-attachment:initial;animation-play-state:paused" ><g class="ldl-scale" style="transform-origin:50% 50%;transform:rotate(0deg) scale(1, 1);animation-play-state:paused" ><circle fill="#333" r="40" cy="50" cx="50" style="fill:rgb(14, 58, 138);animation-play-state:paused" ></circle>
<g style="animation-play-state:paused" ><path fill="#b3b3b3" d="M65.1 70.6H34.9c-1.1 0-2-.9-2-2v-9.2c0-1.1.9-2 2-2s2 .9 2 2v7.2h26.2v-7.2c0-1.1.9-2 2-2s2 .9 2 2v9.2c.1 1.1-.8 2-2 2z" style="fill:rgb(255, 255, 255);animation-play-state:paused" ></path></g>
<path fill="#fff" d="M66.7 47L51.9 61.9c-1 1-2.7 1-3.7 0L33.3 47c-1-1-1-2.7 0-3.7s2.7-1 3.7 0l10.4 10.4V31c0-1.5 1.2-2.6 2.6-2.6 1.5 0 2.6 1.2 2.6 2.6v22.7L63 43.3c1-1 2.7-1 3.7 0 1.1 1 1.1 2.7 0 3.7z" id="XMLID_13_" style="fill:rgb(255, 255, 255);animation-play-state:paused" ></path>
<metadata xmlns:d="https://loading.io/stock/" style="animation-play-state:paused" ><d:name style="animation-play-state:paused" >download</d:name>
<d:tags style="animation-play-state:paused" >download,receive,cloud,fetch,sync,ftp</d:tags>
<d:license style="animation-play-state:paused" >by</d:license>
<d:slug style="animation-play-state:paused" >kq1b22</d:slug></metadata></g><!-- generated by https://loading.io/ --></svg>