<?xml version="1.0" encoding="utf-8"?><svg xml:space="preserve" viewBox="0 0 100 100" y="0" x="0" xmlns="http://www.w3.org/2000/svg" id="圖層_1" version="1.1" width="200px" height="200px" xmlns:xlink="http://www.w3.org/1999/xlink" style="width:100%;height:100%;background-size:initial;background-repeat-y:initial;background-repeat-x:initial;background-position-y:initial;background-position-x:initial;background-origin:initial;background-color:initial;background-clip:initial;background-attachment:initial;animation-play-state:paused" ><g class="ldl-scale" style="transform-origin:50% 50%;transform:rotate(0deg) scale(1, 1);animation-play-state:paused" ><path fill="#666" clip-rule="evenodd" fill-rule="evenodd" d="M95 66.552c0-6.877-4.478-12.7-10.673-14.736.215-1.436.329-2.906.329-4.402 0-16.283-13.2-29.483-29.483-29.483-13.982 0-25.683 9.737-28.712 22.798-.258-.01-.51-.039-.771-.039C14.263 40.69 5 49.953 5 61.379c0 11.427 9.263 20.69 20.69 20.69h55.862v-.154C89.141 80.901 95 74.418 95 66.552z" style="fill:rgb(38, 194, 49);animation-play-state:paused" ></path>
<path fill="#fff" d="M70.492 51.533c.766 0 1.166.949.649 1.537L53.022 73.663a.86.86 0 0 1-1.298 0L33.607 53.07c-.517-.588-.117-1.537.649-1.537h12.598v-13.69c0-.709.551-1.283 1.231-1.283h8.578c.68 0 1.231.574 1.231 1.283v13.69h12.598z" id="XMLID_1_" style="fill:rgb(255, 255, 255);animation-play-state:paused" ></path>
<metadata xmlns:d="https://loading.io/stock/" style="animation-play-state:paused" ><d:name style="animation-play-state:paused" >download</d:name>


<d:tags style="animation-play-state:paused" >cloud,arrow,save,clone,sync,get,retrieve,download,form</d:tags>


<d:license style="animation-play-state:paused" >by</d:license>


<d:slug style="animation-play-state:paused" >n8fyph</d:slug></metadata></g><!-- generated by https://loading.io/ --></svg>