<?xml version="1.0" encoding="utf-8"?><svg xml:space="preserve" viewBox="0 0 100 100" y="0px" x="0px" xmlns:xlink="http://www.w3.org/1999/xlink" xmlns="http://www.w3.org/2000/svg" id="圖層_1" version="1.1" width="40px" height="40px" style="width:100%;height:100%;background-size:initial;background-repeat-y:initial;background-repeat-x:initial;background-position-y:initial;background-position-x:initial;background-origin:initial;background-color:initial;background-clip:initial;background-attachment:initial;animation-play-state:paused" ><g class="ldl-scale" style="transform-origin:50% 50%;transform:rotate(0deg) scale(0.8, 0.8);animation-play-state:paused" ><path d="M85.9644,43.4644C85.9644,23.6018,69.8626,7.5,50,7.5S14.0356,23.6018,14.0356,43.4644 c0,17.0341,11.8464,31.2919,27.7474,35.0101L50,92.5l8.217-14.0255C74.118,74.7563,85.9644,60.4985,85.9644,43.4644z" fill="#E15B64" style="fill:rgb(225, 91, 100);animation-play-state:paused" ></path>
<path d="M52.4239,25.9688l3.0912,7.7171c0.3733,0.9319,1.2478,1.5673,2.2495,1.6344l8.2947,0.5552 c2.3506,0.1573,3.3073,3.1016,1.4981,4.6106l-6.3842,5.3247c-0.771,0.643-1.105,1.6711-0.8592,2.6445l2.0352,8.0603 c0.5767,2.2842-1.9278,4.1039-3.922,2.8495l-7.0369-4.4263c-0.8498-0.5345-1.9308-0.5345-2.7806,0l-7.0369,4.4263 c-1.9942,1.2544-4.4987-0.5653-3.922-2.8495l2.0352-8.0603c0.2458-0.9734-0.0883-2.0015-0.8592-2.6445l-6.3842-5.3247 c-1.8092-1.5089-0.8526-4.4532,1.4981-4.6106l8.2947-0.5552c1.0017-0.0671,1.8762-0.7024,2.2495-1.6344l3.0912-7.7171 C48.4521,23.7819,51.5479,23.7819,52.4239,25.9688z" fill="#F5E169" style="fill:rgb(245, 225, 105);animation-play-state:paused" ></path>
<metadata xmlns:d="https://loading.io/stock/" style="animation-play-state:paused" ><d:name style="animation-play-state:paused" >marker</d:name>


<d:tags style="animation-play-state:paused" >marker,map,location,pin,star,favorite</d:tags>


<d:license style="animation-play-state:paused" >by</d:license>


<d:slug style="animation-play-state:paused" >prpq4h</d:slug></metadata></g><!-- generated by https://loading.io/ --></svg>