<?xml version="1.0" encoding="utf-8"?><svg xml:space="preserve" viewBox="0 0 100 100" y="0px" x="0px" xmlns:xlink="http://www.w3.org/1999/xlink" xmlns="http://www.w3.org/2000/svg" id="圖層_1" version="1.1" width="50px" height="50px" style="width:100%;height:100%;background-size:initial;background-repeat-y:initial;background-repeat-x:initial;background-position-y:initial;background-position-x:initial;background-origin:initial;background-color:initial;background-clip:initial;background-attachment:initial;animation-play-state:paused" ><g class="ldl-scale" style="transform-origin:50% 50%;transform:rotate(0deg) scale(1, 1);animation-play-state:paused" ><path d="M84,69.5H16c-1.9,0-3.5-1.6-3.5-3.5V34c0-1.9,1.6-3.5,3.5-3.5h68c1.9,0,3.5,1.6,3.5,3.5V66 C87.5,67.9,85.9,69.5,84,69.5z" fill="#C33837" style="fill:rgb(195, 56, 55);animation-play-state:paused" ></path>
<g style="animation-play-state:paused" ><path d="M26.9,42.2h4.2l4.5,8.4l0-3.9v-4.5h3.9v15.6h-4.2l-4.5-8.5l0,4v4.5h-3.9V42.2z" fill="#F5E169" style="fill:rgb(245, 225, 105);animation-play-state:paused" ></path>
<path d="M43,42.2h10.1v3.5h-6v2.4h5.1v3.5h-5.1v2.8h6v3.5H43V42.2z" fill="#F5E169" style="fill:rgb(245, 225, 105);animation-play-state:paused" ></path>
<path d="M54.9,42.2h3.5c0,0,1.4,10.2,1.5,11.8l2.4-11.8h4L68.2,54c0.2-1.6,1.4-11.8,1.4-11.8h3.6l-2.3,15.6h-5.2 c0,0-1.5-8.7-1.6-9.8H64c-0.2,1.2-1.5,9.8-1.5,9.8h-5.1L54.9,42.2z" fill="#F5E169" style="fill:rgb(245, 225, 105);animation-play-state:paused" ></path></g>
<metadata xmlns:d="https://loading.io/stock/" style="animation-play-state:paused" ><d:name style="animation-play-state:paused" >new</d:name>


<d:tags style="animation-play-state:paused" >new,hot,latest,fresh</d:tags>


<d:license style="animation-play-state:paused" >by</d:license>


<d:slug style="animation-play-state:paused" >ieufxm</d:slug></metadata></g><!-- generated by https://loading.io/ --></svg>